<svg width="64" height="64" viewBox="0 0 64 64" fill="none" xmlns="http://www.w3.org/2000/svg">
<rect x="4" y="4" width="56" height="56" rx="16" fill="#13233A"/>
<rect x="4" y="4" width="56" height="56" rx="16" stroke="#29456B" stroke-width="2"/>
<path d="M32 18L36.0172 26.1416L45 27.4466L38.5 33.782L40.0344 42.75L32 38.525L23.9656 42.75L25.5 33.782L19 27.4466L27.9828 26.1416L32 18Z" fill="#FF6A3D"/>
<path d="M32 18L36.0172 26.1416L45 27.4466L38.5 33.782L40.0344 42.75L32 38.525L23.9656 42.75L25.5 33.782L19 27.4466L27.9828 26.1416L32 18Z" stroke="#F8FBFF" stroke-width="2.5" stroke-linejoin="round"/>
<path d="M46 18V24" stroke="#88D7FF" stroke-width="2.5" stroke-linecap="round"/>
<path d="M43 21H49" stroke="#88D7FF" stroke-width="2.5" stroke-linecap="round"/>
</svg>
